<?xml version="1.0" encoding="UTF-8" standalone="no"?>
<svg
  xmlns="http://www.w3.org/2000/svg"
  width="336"
  height="56"
  viewBox="0 0 336 56"
  version="1.1">
  <defs>
    <linearGradient id="bg" x1="0%" y1="0%" x2="100%" y2="0%">
      <stop offset="0%" stop-color="#0b1826"/>
      <stop offset="55%" stop-color="#0d1d2d"/>
      <stop offset="100%" stop-color="#09131f"/>
    </linearGradient>
    <linearGradient id="edge" x1="0%" y1="0%" x2="100%" y2="0%">
      <stop offset="0%" stop-color="#5bf1ff" stop-opacity="0.95"/>
      <stop offset="70%" stop-color="#1f5b77" stop-opacity="0.7"/>
      <stop offset="100%" stop-color="#214358" stop-opacity="0.9"/>
    </linearGradient>
  </defs>
  <g id="button_nav_frame_idle">
    <path d="M20 2 H317 L334 19 V38 L317 54 H20 L2 38 V19 Z" fill="url(#bg)" stroke="#53d6ff" stroke-opacity="0.7" stroke-width="2"/>
    <path d="M28 9 H307 L323 23 V34 L307 47 H28 L13 34 V23 Z" fill="none" stroke="#24475d" stroke-width="1"/>
    <path d="M31 9 H298" stroke="url(#edge)" stroke-width="1.8"/>
    <path d="M31 14 H281" stroke="#33566d" stroke-opacity="0.5" stroke-width="1"/>
    <path d="M278 9 H304" stroke="#ffb13c" stroke-width="1.8" stroke-opacity="0.95"/>
    <g>
      <path d="M26 28 L36 18 H52 L62 28 L52 38 H36 Z" fill="#0b2230" stroke="#57e7ff" stroke-width="1.4"/>
      <path d="M44 19 V37" stroke="#57e7ff" stroke-width="1.2" stroke-opacity="0.7"/>
      <path d="M31 28 H57" stroke="#57e7ff" stroke-width="1.2" stroke-opacity="0.7"/>
      <circle cx="44" cy="28" r="4.8" fill="#57e7ff" fill-opacity="0.24" stroke="#7af6ff" stroke-width="1"/>
    </g>
    <path d="M303 23 L312 28 L303 33" fill="none" stroke="#d8f3ff" stroke-width="1.7" stroke-linecap="round" stroke-linejoin="round"/>
    <path d="M11 20 H19" stroke="#57e7ff" stroke-width="1.4"/>
    <path d="M11 20 V30" stroke="#57e7ff" stroke-width="1.4"/>
    <path d="M325 36 H317" stroke="#ffb13c" stroke-width="1.4"/>
    <path d="M325 36 V28" stroke="#ffb13c" stroke-width="1.4"/>
  </g>
</svg>
