<?xml version="1.0" encoding="UTF-8" standalone="no"?>
<svg
  xmlns="http://www.w3.org/2000/svg"
  width="336"
  height="56"
  viewBox="0 0 336 56"
  version="1.1">
  <defs>
    <linearGradient id="bg_active" x1="0%" y1="0%" x2="100%" y2="0%">
      <stop offset="0%" stop-color="#163942"/>
      <stop offset="45%" stop-color="#1a3240"/>
      <stop offset="100%" stop-color="#0c1520"/>
    </linearGradient>
    <linearGradient id="wash" x1="0%" y1="0%" x2="100%" y2="0%">
      <stop offset="0%" stop-color="#8dfff8" stop-opacity="0.34"/>
      <stop offset="55%" stop-color="#58ecff" stop-opacity="0.16"/>
      <stop offset="100%" stop-color="#000000" stop-opacity="0"/>
    </linearGradient>
    <filter id="active_halo" x="-10%" y="-20%" width="120%" height="140%">
      <feGaussianBlur stdDeviation="3.2" result="blur"/>
      <feMerge>
        <feMergeNode in="blur"/>
        <feMergeNode in="SourceGraphic"/>
      </feMerge>
    </filter>
  </defs>
  <g id="nav_shell_active">
    <path
      d="M20 2 H317 L334 19 V38 L317 54 H20 L2 38 V19 Z"
      fill="url(#bg_active)"
      stroke="#9dfff4"
      stroke-width="2.2"
      filter="url(#active_halo)"/>
    <path
      d="M3 3 H126 L140 15 H317 L333 31 V38 L317 54 H20 L2 38 V19 Z"
      fill="url(#wash)"/>
    <path
      d="M28 9 H307 L323 23 V34 L307 47 H28 L13 34 V23 Z"
      fill="none"
      stroke="#5d9b9f"
      stroke-width="1"/>
    <path d="M66 9 H270" stroke="#b0fff6" stroke-width="2"/>
    <path d="M272 9 H304" stroke="#ffb13c" stroke-width="2"/>
    <path d="M66 41 H210" stroke="#7af6ff" stroke-width="1.2" stroke-opacity="0.52"/>
    <path d="M11 20 H19" stroke="#a0fff3" stroke-width="1.6"/>
    <path d="M11 20 V30" stroke="#a0fff3" stroke-width="1.6"/>
    <path d="M325 36 H317" stroke="#ffb13c" stroke-width="1.5"/>
    <path d="M325 36 V28" stroke="#ffb13c" stroke-width="1.5"/>
  </g>
</svg>
