<?xml version="1.0" encoding="UTF-8" standalone="no"?>
<svg
  xmlns="http://www.w3.org/2000/svg"
  width="336"
  height="56"
  viewBox="0 0 336 56"
  version="1.1">
  <defs>
    <linearGradient id="bg_active" x1="0%" y1="0%" x2="100%" y2="0%">
      <stop offset="0%" stop-color="#14303a"/>
      <stop offset="45%" stop-color="#172b39"/>
      <stop offset="100%" stop-color="#0c1520"/>
    </linearGradient>
    <linearGradient id="wash" x1="0%" y1="0%" x2="100%" y2="0%">
      <stop offset="0%" stop-color="#7af3ff" stop-opacity="0.22"/>
      <stop offset="55%" stop-color="#58ecff" stop-opacity="0.10"/>
      <stop offset="100%" stop-color="#000000" stop-opacity="0"/>
    </linearGradient>
  </defs>
  <g id="nav_shell_active">
    <path
      d="M20 2 H317 L334 19 V38 L317 54 H20 L2 38 V19 Z"
      fill="url(#bg_active)"
      stroke="#74ebff"
      stroke-width="2"/>
    <path
      d="M3 3 H126 L140 15 H317 L333 31 V38 L317 54 H20 L2 38 V19 Z"
      fill="url(#wash)"/>
    <path
      d="M28 9 H307 L323 23 V34 L307 47 H28 L13 34 V23 Z"
      fill="none"
      stroke="#3f6d7e"
      stroke-width="1"/>
    <path d="M66 14 H270" stroke="#8ef4ff" stroke-width="1.8"/>
    <path d="M272 14 H304" stroke="#ffb13c" stroke-width="2"/>
    <path d="M66 44 H210" stroke="#58ecff" stroke-width="1" stroke-opacity="0.5"/>
    <path d="M11 20 H19" stroke="#8ef4ff" stroke-width="1.5"/>
    <path d="M11 20 V30" stroke="#8ef4ff" stroke-width="1.5"/>
    <path d="M325 36 H317" stroke="#ffb13c" stroke-width="1.5"/>
    <path d="M325 36 V28" stroke="#ffb13c" stroke-width="1.5"/>
  </g>
</svg>
