<?xml version="1.0" encoding="UTF-8" standalone="no"?>
<svg xmlns="http://www.w3.org/2000/svg" width="512" height="320" viewBox="0 0 512 320" version="1.1">
  <defs>
    <linearGradient id="bg" x1="0%" y1="0%" x2="0%" y2="100%">
      <stop offset="0%" stop-color="#111b28"/>
      <stop offset="100%" stop-color="#0a121a"/>
    </linearGradient>
    <filter id="glow" x="-12%" y="-12%" width="124%" height="124%">
      <feGaussianBlur stdDeviation="4.5" result="blur"/>
      <feMerge>
        <feMergeNode in="blur"/>
        <feMergeNode in="SourceGraphic"/>
      </feMerge>
    </filter>
  </defs>
  <g>
    <path d="M28 2 H485 L510 27 V292 L485 318 H28 L2 292 V27 Z" fill="url(#bg)" stroke="#ffb13c" stroke-opacity="0.86" stroke-width="2" filter="url(#glow)"/>
    <path d="M38 12 H474 L500 38 V282 L474 308 H38 L12 282 V38 Z" fill="none" stroke="#5a4b2d" stroke-width="1"/>
    <path d="M50 18 H458" stroke="#ffb13c" stroke-width="2"/>
    <path d="M376 18 H458" stroke="#57e4ff" stroke-width="2"/>
    <path d="M50 24 H430" stroke="#5a4b2d" stroke-opacity="0.5" stroke-width="1"/>
    <path d="M22 40 H46" stroke="#ffb13c" stroke-width="1.5"/>
    <path d="M22 40 V64" stroke="#ffb13c" stroke-width="1.5"/>
    <path d="M490 40 H466" stroke="#6c5835" stroke-width="1.5"/>
    <path d="M490 40 V64" stroke="#6c5835" stroke-width="1.5"/>
    <path d="M22 280 H46" stroke="#6c5835" stroke-opacity="0.8" stroke-width="1.5"/>
    <path d="M22 280 V256" stroke="#6c5835" stroke-opacity="0.8" stroke-width="1.5"/>
    <path d="M490 280 H466" stroke="#57e4ff" stroke-width="1.5"/>
    <path d="M490 280 V256" stroke="#57e4ff" stroke-width="1.5"/>
    <path d="M482 116 V204" stroke="#57e4ff" stroke-opacity="0.82" stroke-width="2"/>
    <path d="M468 160 H482" stroke="#57e4ff" stroke-width="2"/>
  </g>
</svg>
